<?xml version="1.0" encoding="utf-8"?>
<!-- Generator: Adobe Illustrator 15.0.2, SVG Export Plug-In . SVG Version: 6.00 Build 0)  -->
<!DOCTYPE svg PUBLIC "-//W3C//DTD SVG 1.1//EN" "http://www.w3.org/Graphics/SVG/1.1/DTD/svg11.dtd">
<svg version="1.1" id="Ebene_1" xmlns="http://www.w3.org/2000/svg" xmlns:xlink="http://www.w3.org/1999/xlink" x="0px" y="0px"
	 width="283.46px" height="283.46px" viewBox="0 0 283.46 283.46" enable-background="new 0 0 283.46 283.46" xml:space="preserve">
<path fill="#39A9DC" d="M233.052,143.175c-1.858-27.981-22.781-50.059-48.367-50.059c-9.897,0-19.088,3.311-26.777,8.985
	c-5.522-24.03-25.042-41.832-48.346-41.832c-27.586,0-49.962,24.927-49.962,55.667c0,2.265,0.161,4.482,0.393,6.693
	c-0.281-0.017-0.567-0.055-0.854-0.055c-20.858,0-37.772,18.843-37.772,42.085c0,22.526,15.918,40.876,35.894,41.969v0.102h173.663
	v-0.132c0.385,0.016,0.749,0.132,1.135,0.132c15.793,0,28.578-14.261,28.578-31.84C260.634,157.683,248.375,143.761,233.052,143.175
	z"/>
</svg>
