<?xml version="1.0" encoding="utf-8"?>
<!-- Generator: Adobe Illustrator 15.0.2, SVG Export Plug-In . SVG Version: 6.00 Build 0)  -->
<!DOCTYPE svg PUBLIC "-//W3C//DTD SVG 1.1//EN" "http://www.w3.org/Graphics/SVG/1.1/DTD/svg11.dtd">
<svg version="1.1" id="Ebene_1" xmlns="http://www.w3.org/2000/svg" xmlns:xlink="http://www.w3.org/1999/xlink" x="0px" y="0px"
	 width="283.46px" height="283.46px" viewBox="0 0 283.46 283.46" enable-background="new 0 0 283.46 283.46" xml:space="preserve">
<g>
	<path fill="#00378B" d="M241.514,155.692c8.301-1.164,14.191-6.773,14.191-17.473c0-11.709-7.685-19.058-19.072-20.054
		l-0.168,0.014c-13.688-1.865-36.181-2.426-49.559-3.282c-2.679-9.353-1.768-12.789,1.907-21.133
		c12.705-13.715,19.408-27.416,17.417-46.502c-0.729-6.941-7.181-17.978-12.061-18.708c-8.414-1.304-10.953,5.483-16.969,15.538
		c-6.324,10.56-9.424,13.21-16.814,25.916c-7.334,12.719-8.344,15.72-35.101,34.441c-24.331,17.024-21.077,23.405-49.167,28.749
		c-5.049,0.981-20.054,3.52-40.458,3.52c-5.02,0-9.087,11.036-9.087,46.754c0,35.691,4.067,46.741,9.087,46.741
		c22.41,0,40.809,0.982,52.841,4.318c20.068,8.696,45.815,13.688,64.55,16.381c35.592,5.104,50.681,3.142,61.76,0.224l0.057-0.224
		c5.833-1.684,10.04-5.806,12.061-12.901c1.879-6.676,0.784-10.996-3.03-13.463l3.31-0.449c9.593-1.796,16.491-6.508,17.586-17.754
		c0.758-8.05-1.768-13.154-6.928-15.313c9.313-0.154,16.659-4.586,18.175-16.688C257.444,163.266,250.685,156.071,241.514,155.692z"
		/>
</g>
</svg>
