<?xml version="1.0" encoding="utf-8"?>
<!-- Generator: Adobe Illustrator 15.0.2, SVG Export Plug-In . SVG Version: 6.00 Build 0)  -->
<!DOCTYPE svg PUBLIC "-//W3C//DTD SVG 1.1//EN" "http://www.w3.org/Graphics/SVG/1.1/DTD/svg11.dtd">
<svg version="1.1" id="Ebene_1" xmlns="http://www.w3.org/2000/svg" xmlns:xlink="http://www.w3.org/1999/xlink" x="0px" y="0px"
	 width="283.46px" height="283.46px" viewBox="0 0 283.46 283.46" enable-background="new 0 0 283.46 283.46" xml:space="preserve">
<g>
	<path fill="#7C4D25" d="M141.806,20.909c-44.398,0-80.369,35.971-80.369,80.369c0,44.398,35.972,80.384,80.369,80.384
		s80.37-35.985,80.37-80.384C222.175,56.88,186.203,20.909,141.806,20.909z M145.715,164.929c-23.958,0-45.03-15.735-57.313-39.545
		H203.03C190.734,149.194,169.686,164.929,145.715,164.929z"/>
	<path fill="#7C4D25" d="M190.302,192.083c-14.453,7.767-30.97,12.161-48.497,12.161c-17.527,0-34.03-4.395-48.497-12.161
		c-31.211,8.198-55.695,27.64-66.914,69.462h230.833C246.011,219.722,221.554,200.281,190.302,192.083z"/>
</g>
</svg>
