<?xml version="1.0" encoding="utf-8"?>
<!-- Generator: Adobe Illustrator 15.0.2, SVG Export Plug-In . SVG Version: 6.00 Build 0)  -->
<!DOCTYPE svg PUBLIC "-//W3C//DTD SVG 1.1//EN" "http://www.w3.org/Graphics/SVG/1.1/DTD/svg11.dtd">
<svg version="1.1" id="Ebene_1" xmlns="http://www.w3.org/2000/svg" xmlns:xlink="http://www.w3.org/1999/xlink" x="0px" y="0px"
	 width="283.46px" height="283.46px" viewBox="0 0 283.46 283.46" enable-background="new 0 0 283.46 283.46" xml:space="preserve">
<g>
	<path fill="#FFFFFF" d="M41.931,247.124c-2.236,2.66-3.587,6.088-3.587,9.835c0,8.453,6.851,15.304,15.303,15.304
		c5.471,0,10.258-2.88,12.963-7.197L41.931,247.124z"/>
</g>
<g>
	<path fill="#FFFFFF" d="M196.845,54.942c20.183,14.332,37.044,18.046,44.424,19.009c0.649-17.611-6.896-35.277-21.88-46.843
		c-9.973-7.698-21.884-11.768-34.444-11.768v-2.126c-0.001,0-0.001,0-0.002,0l-0.002,2.126c-7.062,0-13.898,1.302-20.26,3.731
		C167.842,25.725,176.611,40.571,196.845,54.942z"/>
	<path fill="#FFFFFF" d="M192.742,60.72c-21.641-15.369-31.014-31.181-34.527-38.693c-6.898,3.702-13.041,8.847-18.001,15.272
		c-9.214,11.936-13.228,26.745-11.303,41.7c1.925,14.954,9.558,28.264,21.494,37.478c9.974,7.698,21.886,11.767,34.449,11.767
		c17.652,0,33.955-8.004,44.729-21.958c5.9-7.644,9.526-16.336,10.991-25.257C232.361,80.022,214.38,76.085,192.742,60.72z"/>
</g>
<path fill="#FFFFFF" d="M146.806,120.842c-6.358-4.908-11.447-10.84-15.268-17.372L40.266,232.95
	c-2.024,2.783-1.408,6.684,1.377,8.707l32.015,23.274c1.107,0.805,2.389,1.192,3.66,1.192c1.927,0,3.828-0.892,5.048-2.569
	l92.193-130.784C164.765,131.255,155.207,127.327,146.806,120.842z M89.438,219.177l-13.743,19.8
	c-1.963,2.828-5.848,3.53-8.675,1.567l-2.329-1.616c-2.83-1.964-3.531-5.848-1.569-8.677l13.743-19.799
	c1.963-2.828,4.285,1.146,6.904,3.893C87.165,215.848,91.401,216.349,89.438,219.177z"/>
</svg>
