<?xml version="1.0" encoding="utf-8"?>
<!-- Generator: Adobe Illustrator 15.0.2, SVG Export Plug-In . SVG Version: 6.00 Build 0)  -->
<!DOCTYPE svg PUBLIC "-//W3C//DTD SVG 1.1//EN" "http://www.w3.org/Graphics/SVG/1.1/DTD/svg11.dtd">
<svg version="1.1" id="Ebene_1" xmlns="http://www.w3.org/2000/svg" xmlns:xlink="http://www.w3.org/1999/xlink" x="0px" y="0px"
	 width="283.46px" height="283.46px" viewBox="0 0 283.46 283.46" enable-background="new 0 0 283.46 283.46" xml:space="preserve">
<g id="Ebene_2_1_">
	<g>
		<rect x="90.744" y="49.31" fill="#FFFFFF" width="102.895" height="164.105"/>
		<path fill="#FFFFFF" d="M142.339,235.379c3.616,0,6.556,2.938,6.556,6.551c0,3.624-2.939,6.551-6.556,6.551
			c-3.618,0-6.547-2.927-6.547-6.551C135.792,238.317,138.722,235.379,142.339,235.379z"/>
		<path fill="#3E3E40" d="M204.054,52.168c0,0-0.789-15.698-4.968-20.547c-4.257-4.903-9.647-6.046-13.584-6.877
			c-4.614-0.978-13.102-2.312-27.299-3.135c-6.479-0.371-11.563-0.541-16.493-0.541c-4.348,0-8.289,0.122-13.291,0.28l-2.409,0.08
			c-9.589,0.292-17.221,1.035-20.474,1.352c-0.708,0.069-1.189,0.114-1.438,0.134c-0.339,0.024-1.349,0.089-1.74,0.834
			c-0.02,0.05-0.052,0.096-0.065,0.147c-1.486,0.25-5.299,0.941-8.308,1.877c-5.022,1.566-7.773,3.577-10.182,7.438
			c-2.193,3.53-2.626,9.468-2.783,11.702c-0.029,0.231-0.039,0.562-0.039,0.562l-0.57,170.501l0.818,15.396
			c0,0,3.139,16.335,6.291,19.891c2.855,3.227,6.625,5.149,12.202,6.226c0.6,0.114,1.167,0.224,1.714,0.335
			c4.205,0.841,7.532,1.496,19.105,2.112c1.167,0.059,2.298,0.107,3.416,0.183c5.254,0.286,10.228,0.557,16.879,0.557
			c4.721,0,9.936-0.13,15.958-0.414c21.055-1.01,31.49-2.212,37.689-6.714c6.107-4.429,7.496-10.96,8.422-15.288l0.038-0.183
			c1.076-5.045,1.499-19.949,1.499-19.949L204.054,52.168z M142.339,248.491c-3.624,0-6.557-2.933-6.557-6.561
			c0-3.618,2.934-6.551,6.557-6.551c3.623,0,6.563,2.933,6.563,6.551C148.902,245.558,145.962,248.491,142.339,248.491z
			 M193.638,213.419H90.744V49.31h102.895V213.419z"/>
	</g>
</g>
</svg>
