<?xml version="1.0" encoding="utf-8"?>
<!-- Generator: Adobe Illustrator 15.0.2, SVG Export Plug-In . SVG Version: 6.00 Build 0)  -->
<!DOCTYPE svg PUBLIC "-//W3C//DTD SVG 1.1//EN" "http://www.w3.org/Graphics/SVG/1.1/DTD/svg11.dtd">
<svg version="1.1" id="Ebene_1" xmlns="http://www.w3.org/2000/svg" xmlns:xlink="http://www.w3.org/1999/xlink" x="0px" y="0px"
	 width="283.46px" height="283.46px" viewBox="0 0 283.46 283.46" enable-background="new 0 0 283.46 283.46" xml:space="preserve">
<path fill="#3377DF" d="M220.269,139.708c-0.013-0.483-0.016-0.97-0.037-1.45c18.696-3.634,32.813-20.088,32.813-39.847
	c0-22.423-18.178-40.601-40.602-40.601c-12.975,0-24.519,6.093-31.951,15.565c-0.846-0.48-1.699-0.946-2.564-1.396
	c1.412-4.125,2.189-8.545,2.189-13.148c0-22.423-18.178-40.601-40.601-40.601S98.916,36.409,98.916,58.832
	c0,5.369,1.052,10.49,2.945,15.182c-1.213,0.716-2.408,1.458-3.578,2.235c-7.43-8.219-18.173-13.384-30.124-13.384
	c-22.424,0-40.602,18.178-40.602,40.601c0,20.741,15.557,37.838,35.637,40.289c0.012,0.483,0.016,0.97,0.036,1.451
	c-18.696,3.633-32.813,20.087-32.813,39.846c0,22.422,18.177,40.6,40.6,40.6c12.975,0,24.519-6.094,31.951-15.566
	c0.846,0.48,1.7,0.946,2.564,1.396c-1.411,4.126-2.188,8.546-2.188,13.149c0,22.423,18.178,40.601,40.601,40.601
	s40.601-18.178,40.601-40.601c0-5.369-1.052-10.489-2.944-15.18c1.213-0.716,2.408-1.458,3.578-2.236
	c7.43,8.218,18.173,13.383,30.124,13.383c22.423,0,40.601-18.178,40.601-40.602C255.903,159.254,240.347,142.158,220.269,139.708z
	 M141.73,188.73c-25.957,0-47-21.043-47-47s21.043-47,47-47s47,21.043,47,47S167.687,188.73,141.73,188.73z"/>
</svg>
