<?xml version="1.0" encoding="utf-8"?>
<!-- Generator: Adobe Illustrator 15.0.2, SVG Export Plug-In . SVG Version: 6.00 Build 0)  -->
<!DOCTYPE svg PUBLIC "-//W3C//DTD SVG 1.1//EN" "http://www.w3.org/Graphics/SVG/1.1/DTD/svg11.dtd">
<svg version="1.1" id="Ebene_1" xmlns="http://www.w3.org/2000/svg" xmlns:xlink="http://www.w3.org/1999/xlink" x="0px" y="0px"
	 width="126.667px" height="98.333px" viewBox="3.167 0 126.667 98.333" enable-background="new 3.167 0 126.667 98.333"
	 xml:space="preserve">
<rect x="26.683" y="55.995" fill="#FFFFFF" width="50.292" height="30.639"/>
<rect x="45.188" y="10.571" fill="#FFFFFF" width="50.291" height="30.641"/>
<g id="Ebene_2">
	<g>
		<rect x="95.743" y="51.726" fill="#FFFFFF" width="19.667" height="31.366"/>
		<circle fill="#FFFFFF" cx="105.604" cy="88.542" r="1.251"/>
		<path fill="#3E3D40" d="M117.398,52.272c0,0-0.149-3-0.947-3.928c-0.813-0.936-1.846-1.154-2.598-1.313
			c-0.883-0.188-2.504-0.443-5.217-0.6c-1.24-0.071-2.211-0.104-3.152-0.104c-0.832,0-1.584,0.022-2.541,0.053l-0.461,0.016
			c-1.832,0.057-3.291,0.198-3.912,0.26c-0.135,0.012-0.229,0.021-0.275,0.024c-0.064,0.005-0.258,0.017-0.332,0.159
			c-0.004,0.01-0.01,0.02-0.012,0.029c-0.285,0.047-1.014,0.178-1.59,0.357c-0.959,0.299-1.484,0.684-1.945,1.421
			c-0.419,0.675-0.502,1.81-0.532,2.237c-0.005,0.044-0.007,0.107-0.007,0.107l-0.109,32.588l0.156,2.942c0,0,0.6,3.121,1.202,3.802
			c0.546,0.616,1.267,0.984,2.333,1.19c0.115,0.021,0.223,0.042,0.328,0.063c0.803,0.16,1.439,0.285,3.65,0.402
			c0.224,0.012,0.439,0.021,0.652,0.035c1.004,0.057,1.955,0.105,3.227,0.105c0.904,0,1.898-0.023,3.05-0.078
			c4.024-0.192,6.021-0.424,7.204-1.283c1.166-0.848,1.434-2.096,1.611-2.922l0.006-0.035c0.207-0.965,0.287-3.813,0.287-3.813
			L117.398,52.272z M105.604,89.795c-0.691,0-1.252-0.562-1.252-1.254c0-0.69,0.561-1.252,1.252-1.252s1.256,0.562,1.256,1.252
			C106.859,89.235,106.296,89.795,105.604,89.795z M115.409,83.092H95.743V51.726h19.667L115.409,83.092L115.409,83.092z"/>
	</g>
</g>
<g>
	<ellipse fill="#FFFFFF" cx="23.983" cy="75.698" rx="1.813" ry="2.118"/>
</g>
<path fill="#3E3D40" d="M74.21,89.101c0,0,4.531-0.229,5.931-1.437c1.416-1.228,1.746-2.783,1.984-3.922
	c0.282-1.332,0.668-3.777,0.904-7.875c0.107-1.871,0.158-3.339,0.158-4.763c0-1.254-0.037-2.392-0.082-3.835l-0.022-0.693
	c-0.083-2.771-0.299-4.973-0.39-5.91c-0.021-0.205-0.033-0.344-0.039-0.416c-0.008-0.099-0.025-0.389-0.241-0.502
	c-0.015-0.006-0.028-0.016-0.042-0.02c-0.072-0.43-0.271-1.527-0.542-2.398c-0.452-1.449-1.033-2.242-2.146-2.937
	c-1.02-0.634-2.732-0.759-3.378-0.804c-0.067-0.008-0.161-0.012-0.161-0.012l-49.211-0.164l-4.442,0.236
	c0,0-4.717,0.905-5.742,1.813c-0.93,0.826-1.485,1.914-1.796,3.522c-0.033,0.175-0.065,0.337-0.096,0.494
	c-0.243,1.215-0.433,2.177-0.61,5.517c-0.017,0.336-0.033,0.664-0.053,0.985c-0.083,1.515-0.161,2.951-0.161,4.87
	c0,1.363,0.038,2.868,0.12,4.605c0.292,6.076,0.639,9.09,1.937,10.879c1.278,1.762,3.165,2.162,4.413,2.431l0.053,0.013
	c1.455,0.309,5.758,0.432,5.758,0.432L74.21,89.101z M17.548,71.29c0-1.047,0.848-1.895,1.894-1.895
	c1.044,0,1.891,0.848,1.891,1.895c0,1.043-0.847,1.894-1.891,1.894C18.396,73.182,17.548,72.333,17.548,71.29z M27.67,86.094V56.397
	h47.365v29.697H27.67z"/>
<path fill="#3E3D40" d="M93.01,44.215c0,0,4.53-0.229,5.93-1.437c1.416-1.228,1.746-2.782,1.984-3.921
	c0.282-1.332,0.668-3.778,0.905-7.876c0.106-1.871,0.157-3.338,0.157-4.762c0-1.254-0.037-2.392-0.082-3.835l-0.023-0.694
	c-0.083-2.77-0.299-4.972-0.39-5.909c-0.021-0.205-0.033-0.345-0.039-0.416c-0.007-0.099-0.025-0.389-0.241-0.502
	c-0.014-0.005-0.027-0.015-0.042-0.02c-0.071-0.429-0.271-1.528-0.542-2.397c-0.451-1.449-1.032-2.244-2.146-2.938
	c-1.019-0.634-2.731-0.758-3.377-0.804c-0.067-0.007-0.162-0.011-0.162-0.011L45.73,8.53l-4.441,0.237c0,0-4.717,0.905-5.742,1.813
	c-0.93,0.826-1.485,1.913-1.796,3.522c-0.032,0.174-0.065,0.337-0.097,0.495c-0.242,1.214-0.433,2.175-0.609,5.515
	c-0.018,0.337-0.033,0.664-0.053,0.986c-0.083,1.515-0.161,2.951-0.161,4.87c0,1.364,0.038,2.868,0.12,4.606
	c0.292,6.075,0.639,9.09,1.937,10.879c1.278,1.76,3.165,2.162,4.413,2.43l0.053,0.012c1.455,0.311,5.758,0.432,5.758,0.432
	L93.01,44.215z M36.347,26.405c0-1.047,0.849-1.896,1.894-1.896c1.045,0,1.892,0.848,1.892,1.896c0,1.043-0.847,1.893-1.892,1.893
	C37.196,28.298,36.347,27.448,36.347,26.405z M46.469,41.209V11.512h47.365v29.697H46.469z"/>
<g>
	<path fill="#009EE0" d="M70.283,13.974c-2.771,0-5.018,2.247-5.018,5.019c0,2.771,2.246,5.02,5.018,5.02
		c2.773,0,5.019-2.247,5.019-5.02C75.302,16.221,73.057,13.974,70.283,13.974z M70.527,22.967c-1.496,0-2.811-0.982-3.578-2.469
		h7.158C73.339,21.985,72.025,22.967,70.527,22.967z"/>
	<path fill="#009EE0" d="M73.312,24.662c-0.901,0.486-1.934,0.759-3.028,0.759c-1.094,0-2.125-0.273-3.028-0.759
		c-1.948,0.513-3.477,1.727-4.178,4.338h14.414C76.79,26.389,75.264,25.175,73.312,24.662z"/>
</g>
<g>
	<path fill="#009EE0" d="M59.315,31.31c-1.454,0-2.632,1.178-2.632,2.632s1.178,2.632,2.632,2.632s2.632-1.178,2.632-2.632
		C61.947,32.488,60.77,31.31,59.315,31.31z M59.443,36.026c-0.785,0-1.474-0.515-1.877-1.295h3.755
		C60.918,35.511,60.229,36.026,59.443,36.026z"/>
	<path fill="#009EE0" d="M60.903,36.915c-0.473,0.255-1.014,0.398-1.588,0.398s-1.114-0.144-1.588-0.398
		c-1.022,0.27-1.823,0.906-2.191,2.275h7.56C62.728,37.821,61.927,37.185,60.903,36.915z"/>
</g>
<g>
	<path fill="#6CA524" d="M70.283,31.31c-1.454,0-2.632,1.178-2.632,2.632s1.178,2.632,2.632,2.632s2.632-1.178,2.632-2.632
		C72.915,32.488,71.737,31.31,70.283,31.31z M70.411,36.026c-0.785,0-1.474-0.515-1.877-1.295h3.755
		C71.886,35.511,71.196,36.026,70.411,36.026z"/>
	<path fill="#6CA524" d="M71.871,36.915c-0.473,0.255-1.014,0.398-1.588,0.398s-1.114-0.144-1.588-0.398
		c-1.022,0.27-1.823,0.906-2.191,2.275h7.56C73.695,37.821,72.895,37.185,71.871,36.915z"/>
</g>
<g>
	<path fill="#E2007A" d="M81.189,31.31c-1.454,0-2.632,1.178-2.632,2.632s1.178,2.632,2.632,2.632s2.632-1.178,2.632-2.632
		C83.821,32.488,82.644,31.31,81.189,31.31z M81.317,36.026c-0.785,0-1.474-0.515-1.877-1.295h3.755
		C82.792,35.511,82.103,36.026,81.317,36.026z"/>
	<path fill="#E2007A" d="M82.777,36.915c-0.473,0.255-1.014,0.398-1.588,0.398s-1.114-0.144-1.588-0.398
		c-1.022,0.27-1.823,0.906-2.191,2.275h7.56C84.602,37.821,83.801,37.185,82.777,36.915z"/>
</g>
<g>
	<path fill="#E2007A" d="M105.679,55.309c-2.515,0-4.553,2.038-4.553,4.553s2.038,4.555,4.553,4.555
		c2.517,0,4.554-2.038,4.554-4.555C110.232,57.347,108.195,55.309,105.679,55.309z M105.9,63.468c-1.357,0-2.55-0.892-3.247-2.24
		h6.495C108.451,62.577,107.26,63.468,105.9,63.468z"/>
	<path fill="#E2007A" d="M108.427,65.006c-0.818,0.441-1.755,0.689-2.748,0.689c-0.992,0-1.928-0.248-2.748-0.689
		c-1.768,0.466-3.154,1.566-3.79,3.937h13.078C111.583,66.573,110.198,65.472,108.427,65.006z"/>
</g>
<g>
	<path fill="#009EE0" d="M99.017,71.705c-1.073,0-1.943,0.87-1.943,1.943s0.87,1.943,1.943,1.943c1.074,0,1.943-0.869,1.943-1.943
		C100.96,72.575,100.091,71.705,99.017,71.705z M99.111,75.187c-0.579,0-1.088-0.38-1.386-0.957h2.772
		C100.2,74.807,99.691,75.187,99.111,75.187z"/>
	<path fill="#009EE0" d="M100.189,75.843c-0.349,0.188-0.748,0.294-1.173,0.294c-0.424,0-0.822-0.105-1.172-0.294
		c-0.755,0.198-1.347,0.668-1.618,1.68h5.582C101.536,76.511,100.945,76.042,100.189,75.843z"/>
</g>
<g>
	<path fill="#6CA524" d="M105.674,71.705c-1.074,0-1.943,0.87-1.943,1.943s0.869,1.943,1.943,1.943c1.073,0,1.942-0.869,1.942-1.943
		C107.616,72.575,106.747,71.705,105.674,71.705z M105.769,75.187c-0.58,0-1.088-0.38-1.386-0.957h2.772
		C106.856,74.807,106.349,75.187,105.769,75.187z"/>
	<path fill="#6CA524" d="M106.846,75.843c-0.349,0.188-0.748,0.294-1.172,0.294s-0.822-0.105-1.172-0.294
		c-0.755,0.198-1.347,0.668-1.618,1.68h5.581C108.192,76.511,107.602,76.042,106.846,75.843z"/>
</g>
<g>
	<path fill="#E2007A" d="M112.285,71.705c-1.073,0-1.943,0.87-1.943,1.943s0.87,1.943,1.943,1.943c1.074,0,1.943-0.869,1.943-1.943
		C114.229,72.575,113.359,71.705,112.285,71.705z M112.379,75.187c-0.579,0-1.088-0.38-1.385-0.957h2.771
		C113.469,74.807,112.959,75.187,112.379,75.187z"/>
	<path fill="#E2007A" d="M113.457,75.843c-0.349,0.188-0.748,0.294-1.172,0.294s-0.823-0.105-1.173-0.294
		c-0.755,0.198-1.346,0.668-1.618,1.68h5.582C114.805,76.511,114.213,76.042,113.457,75.843z"/>
</g>
<g>
	<path fill="#6CA524" d="M51.26,58.706c-2.771,0-5.018,2.247-5.018,5.02c0,2.771,2.246,5.02,5.018,5.02
		c2.773,0,5.019-2.247,5.019-5.02S54.034,58.706,51.26,58.706z M51.504,67.699c-1.496,0-2.811-0.981-3.578-2.47h7.158
		C54.316,66.717,53.002,67.699,51.504,67.699z"/>
	<path fill="#6CA524" d="M54.289,69.394c-0.901,0.485-1.934,0.759-3.028,0.759c-1.094,0-2.125-0.273-3.028-0.759
		c-1.948,0.513-3.477,1.728-4.178,4.338h14.414C57.767,71.122,56.241,69.907,54.289,69.394z"/>
</g>
<g>
	<path fill="#009EE0" d="M40.292,76.042c-1.454,0-2.632,1.179-2.632,2.633c0,1.453,1.178,2.632,2.632,2.632s2.632-1.179,2.632-2.632
		C42.924,77.22,41.747,76.042,40.292,76.042z M40.42,80.758c-0.785,0-1.474-0.516-1.877-1.295h3.755
		C41.895,80.243,41.206,80.758,40.42,80.758z"/>
	<path fill="#009EE0" d="M41.88,81.647c-0.473,0.255-1.014,0.398-1.588,0.398s-1.114-0.144-1.588-0.398
		c-1.022,0.27-1.823,0.906-2.191,2.275h7.56C43.705,82.553,42.904,81.917,41.88,81.647z"/>
</g>
<g>
	<path fill="#6CA524" d="M51.26,76.042c-1.454,0-2.632,1.179-2.632,2.633c0,1.453,1.178,2.632,2.632,2.632s2.632-1.179,2.632-2.632
		C53.892,77.22,52.714,76.042,51.26,76.042z M51.388,80.758c-0.785,0-1.474-0.516-1.877-1.295h3.755
		C52.863,80.243,52.173,80.758,51.388,80.758z"/>
	<path fill="#6CA524" d="M52.848,81.647c-0.473,0.255-1.014,0.398-1.588,0.398s-1.114-0.144-1.588-0.398
		c-1.022,0.27-1.823,0.906-2.191,2.275h7.56C54.672,82.553,53.872,81.917,52.848,81.647z"/>
</g>
<g>
	<path fill="#E2007A" d="M62.167,76.042c-1.454,0-2.632,1.179-2.632,2.633c0,1.453,1.178,2.632,2.632,2.632s2.632-1.179,2.632-2.632
		C64.798,77.22,63.621,76.042,62.167,76.042z M62.294,80.758c-0.785,0-1.474-0.516-1.877-1.295h3.755
		C63.769,80.243,63.08,80.758,62.294,80.758z"/>
	<path fill="#E2007A" d="M63.754,81.647c-0.473,0.255-1.014,0.398-1.588,0.398s-1.114-0.144-1.588-0.398
		c-1.022,0.27-1.823,0.906-2.191,2.275h7.56C65.579,82.553,64.778,81.917,63.754,81.647z"/>
</g>
</svg>
