<?xml version="1.0" encoding="utf-8"?>
<!-- Generator: Adobe Illustrator 15.0.2, SVG Export Plug-In . SVG Version: 6.00 Build 0)  -->
<!DOCTYPE svg PUBLIC "-//W3C//DTD SVG 1.1//EN" "http://www.w3.org/Graphics/SVG/1.1/DTD/svg11.dtd">
<svg version="1.1" xmlns="http://www.w3.org/2000/svg" xmlns:xlink="http://www.w3.org/1999/xlink" x="0px" y="0px" width="135.5px"
	 height="152.25px" viewBox="14.5 -57.083 135.5 152.25" enable-background="new 14.5 -57.083 135.5 152.25" xml:space="preserve">
<g id="Ebene_1">
	<rect x="46.101" y="-44.606" opacity="0.5" fill="#E2007A" width="82.243" height="50.107"/>
	<g id="Ebene_2">
		<g>
			<rect x="50.28" y="21.062" opacity="0.5" fill="#E95D0F" width="32.162" height="51.294"/>
			<circle fill="#FFFFFF" cx="66.405" cy="81.269" r="2.045"/>
			<path fill="#3E3D40" d="M85.694,21.954c0,0-0.244-4.906-1.55-6.423c-1.328-1.53-3.018-1.888-4.248-2.146
				c-1.443-0.307-4.094-0.725-8.531-0.98c-2.028-0.116-3.616-0.169-5.155-0.169c-1.36,0-2.59,0.037-4.155,0.086l-0.754,0.025
				c-2.996,0.093-5.382,0.324-6.397,0.425c-0.22,0.02-0.374,0.035-0.45,0.04c-0.105,0.008-0.422,0.027-0.543,0.26
				c-0.006,0.016-0.016,0.032-0.02,0.048c-0.466,0.076-1.658,0.291-2.6,0.584c-1.568,0.488-2.428,1.118-3.181,2.323
				c-0.686,1.104-0.821,2.959-0.871,3.659c-0.008,0.072-0.011,0.176-0.011,0.176L47.05,73.154l0.255,4.813
				c0,0,0.98,5.104,1.966,6.217c0.893,1.008,2.071,1.609,3.815,1.946c0.188,0.034,0.364,0.069,0.537,0.104
				c1.313,0.262,2.354,0.466,5.97,0.658c0.366,0.019,0.719,0.034,1.066,0.057c1.642,0.093,3.197,0.173,5.277,0.173
				c1.479,0,3.104-0.038,4.987-0.128c6.582-0.314,9.845-0.693,11.781-2.099c1.907-1.386,2.345-3.427,2.636-4.778l0.01-0.057
				c0.338-1.578,0.469-6.235,0.469-6.235L85.694,21.954z M66.405,83.318c-1.13,0-2.047-0.919-2.047-2.051
				c0-1.129,0.917-2.048,2.047-2.048c1.131,0,2.054,0.919,2.054,2.048C68.459,82.401,67.538,83.318,66.405,83.318z M82.441,72.356
				H50.28V21.062h32.162L82.441,72.356L82.441,72.356z"/>
		</g>
	</g>
	<path fill="#3E3D40" d="M124.307,10.414c0,0,7.408-0.374,9.697-2.349c2.315-2.007,2.855-4.55,3.245-6.412
		c0.461-2.178,1.092-6.178,1.48-12.88c0.174-3.06,0.257-5.458,0.257-7.788c0-2.051-0.061-3.911-0.134-6.271l-0.039-1.135
		c-0.136-4.53-0.488-8.131-0.637-9.663c-0.033-0.335-0.055-0.564-0.064-0.681c-0.011-0.162-0.041-0.636-0.394-0.821
		c-0.022-0.009-0.045-0.024-0.069-0.032c-0.116-0.701-0.442-2.499-0.886-3.921c-0.738-2.37-1.688-3.67-3.511-4.805
		c-1.666-1.037-4.467-1.239-5.522-1.314c-0.11-0.011-0.265-0.018-0.265-0.018l-80.477-0.268l-7.264,0.387
		c0,0-7.714,1.479-9.39,2.965c-1.521,1.351-2.428,3.128-2.937,5.759c-0.052,0.285-0.106,0.551-0.159,0.81
		c-0.396,1.985-0.708,3.556-0.996,9.018c-0.029,0.552-0.053,1.086-0.086,1.613c-0.136,2.477-0.264,4.825-0.264,7.963
		c0,2.231,0.063,4.69,0.196,7.533c0.478,9.934,1.044,14.866,3.168,17.792c2.09,2.877,5.176,3.536,7.216,3.973l0.087,0.019
		c2.378,0.508,9.415,0.706,9.415,0.706L124.307,10.414z M31.644-18.711c0-1.713,1.388-3.1,3.098-3.1c1.708,0,3.093,1.387,3.093,3.1
		c0,1.706-1.385,3.095-3.093,3.095C33.032-15.616,31.644-17.006,31.644-18.711z M48.196,5.499v-48.565h77.458V5.499H48.196z"/>
	<g id="Ebene_2_1_">
		<g>
			<rect x="90.536" y="21.066" opacity="0.5" fill="#009EE0" width="25.942" height="41.371"/>
			<circle fill="#FFFFFF" cx="103.546" cy="69.627" r="1.65"/>
			<path fill="#3E3D40" d="M119.104,21.788c0,0-0.198-3.958-1.252-5.181c-1.071-1.236-2.433-1.524-3.428-1.733
				c-1.162-0.248-3.302-0.583-6.88-0.791c-1.635-0.093-2.916-0.134-4.158-0.134c-1.096,0-2.089,0.03-3.353,0.07l-0.604,0.021
				c-2.418,0.073-4.341,0.26-5.162,0.34c-0.177,0.018-0.3,0.029-0.364,0.035c-0.084,0.006-0.34,0.022-0.438,0.211
				c-0.006,0.01-0.013,0.024-0.016,0.037c-0.375,0.064-1.337,0.238-2.096,0.473c-1.266,0.395-1.959,0.901-2.566,1.874
				c-0.552,0.891-0.662,2.386-0.7,2.951c-0.01,0.058-0.014,0.142-0.014,0.142L87.93,63.086l0.208,3.881c0,0,0.789,4.117,1.587,5.015
				c0.718,0.812,1.669,1.3,3.076,1.571c0.151,0.025,0.294,0.055,0.433,0.083c1.059,0.211,1.899,0.376,4.816,0.53
				c0.293,0.016,0.58,0.029,0.858,0.047c1.325,0.074,2.58,0.142,4.257,0.142c1.191,0,2.505-0.035,4.021-0.105
				c5.311-0.251,7.94-0.556,9.506-1.692c1.536-1.115,1.888-2.76,2.124-3.853l0.01-0.044c0.271-1.271,0.376-5.031,0.376-5.031
				L119.104,21.788z M103.546,71.279c-0.915,0-1.651-0.737-1.651-1.654c0-0.91,0.736-1.647,1.651-1.647
				c0.911,0,1.655,0.737,1.655,1.647C105.201,70.542,104.457,71.279,103.546,71.279z M116.479,62.438H90.536V21.066h25.942V62.438
				L116.479,62.438z"/>
		</g>
	</g>
</g>
<g id="Ebene_2_Kopie">
	<defs>
		<rect id="SVGID_1_" x="90.5" y="21.062" width="25.979" height="41.375"/>
	</defs>
	<clipPath id="SVGID_2_">
		<use xlink:href="#SVGID_1_"  overflow="visible"/>
	</clipPath>
	<g clip-path="url(#SVGID_2_)">
		
			<line fill="none" stroke="#FFFFFF" stroke-width="2.8346" stroke-miterlimit="10" x1="94.074" y1="-21.824" x2="55.899" y2="58.016"/>
		
			<line fill="none" stroke="#FFFFFF" stroke-width="2.8346" stroke-miterlimit="10" x1="98.752" y1="-19.589" x2="60.576" y2="60.251"/>
		
			<line fill="none" stroke="#FFFFFF" stroke-width="2.8346" stroke-miterlimit="10" x1="103.999" y1="-17.079" x2="65.824" y2="62.762"/>
		
			<line fill="none" stroke="#FFFFFF" stroke-width="2.8346" stroke-miterlimit="10" x1="108.675" y1="-14.844" x2="70.5" y2="64.997"/>
		
			<line fill="none" stroke="#FFFFFF" stroke-width="2.8346" stroke-miterlimit="10" x1="113.788" y1="-12.398" x2="75.612" y2="67.442"/>
		
			<line fill="none" stroke="#FFFFFF" stroke-width="2.8346" stroke-miterlimit="10" x1="118.464" y1="-10.163" x2="80.289" y2="69.676"/>
		
			<line fill="none" stroke="#FFFFFF" stroke-width="2.8346" stroke-miterlimit="10" x1="123.713" y1="-7.653" x2="85.537" y2="72.187"/>
		
			<line fill="none" stroke="#FFFFFF" stroke-width="2.8346" stroke-miterlimit="10" x1="128.389" y1="-5.418" x2="90.213" y2="74.422"/>
		
			<line fill="none" stroke="#FFFFFF" stroke-width="2.8346" stroke-miterlimit="10" x1="133.606" y1="-2.922" x2="95.431" y2="76.919"/>
		
			<line fill="none" stroke="#FFFFFF" stroke-width="2.8346" stroke-miterlimit="10" x1="138.283" y1="-0.687" x2="100.107" y2="79.154"/>
		
			<line fill="none" stroke="#FFFFFF" stroke-width="2.8346" stroke-miterlimit="10" x1="143.531" y1="1.823" x2="105.355" y2="81.664"/>
		
			<line fill="none" stroke="#FFFFFF" stroke-width="2.8346" stroke-miterlimit="10" x1="148.208" y1="4.059" x2="110.032" y2="83.899"/>
		
			<line fill="none" stroke="#FFFFFF" stroke-width="2.8346" stroke-miterlimit="10" x1="153.319" y1="6.503" x2="115.145" y2="86.344"/>
		
			<line fill="none" stroke="#FFFFFF" stroke-width="2.8346" stroke-miterlimit="10" x1="157.996" y1="8.739" x2="119.821" y2="88.58"/>
		
			<line fill="none" stroke="#FFFFFF" stroke-width="2.8346" stroke-miterlimit="10" x1="163.245" y1="11.25" x2="125.069" y2="91.09"/>
		
			<line fill="none" stroke="#FFFFFF" stroke-width="2.8346" stroke-miterlimit="10" x1="167.921" y1="13.484" x2="129.745" y2="93.325"/>
	</g>
	
		<polygon clip-path="url(#SVGID_2_)" fill="#F6F6F6" fill-opacity="0.75" stroke="#3E3D40" stroke-width="1.4173" stroke-linejoin="round" stroke-miterlimit="10" points="
		88.817,-11.816 98.99,8.8 121.75,12.105 105.282,28.159 109.167,50.82 88.817,40.121 68.464,50.82 72.353,28.159 55.886,12.105 
		78.644,8.8 	"/>
</g>
<g id="Ebene_2_2_">
	<defs>
		<rect id="SVGID_3_" x="50.28" y="21.062" width="32.162" height="51.294"/>
	</defs>
	<clipPath id="SVGID_4_">
		<use xlink:href="#SVGID_3_"  overflow="visible"/>
	</clipPath>
	<g clip-path="url(#SVGID_4_)">
		
			<line fill="none" stroke="#FFFFFF" stroke-width="2.8346" stroke-miterlimit="10" x1="55.898" y1="-14.844" x2="17.723" y2="64.997"/>
		
			<line fill="none" stroke="#FFFFFF" stroke-width="2.8346" stroke-miterlimit="10" x1="60.576" y1="-12.608" x2="22.4" y2="67.232"/>
		
			<line fill="none" stroke="#FFFFFF" stroke-width="2.8346" stroke-miterlimit="10" x1="65.823" y1="-10.098" x2="27.648" y2="69.743"/>
		
			<line fill="none" stroke="#FFFFFF" stroke-width="2.8346" stroke-miterlimit="10" x1="70.499" y1="-7.863" x2="32.324" y2="71.977"/>
		
			<line fill="none" stroke="#FFFFFF" stroke-width="2.8346" stroke-miterlimit="10" x1="75.612" y1="-5.418" x2="37.437" y2="74.422"/>
		
			<line fill="none" stroke="#FFFFFF" stroke-width="2.8346" stroke-miterlimit="10" x1="80.288" y1="-3.182" x2="42.113" y2="76.657"/>
		
			<line fill="none" stroke="#FFFFFF" stroke-width="2.8346" stroke-miterlimit="10" x1="85.537" y1="-0.672" x2="47.361" y2="79.167"/>
		
			<line fill="none" stroke="#FFFFFF" stroke-width="2.8346" stroke-miterlimit="10" x1="90.213" y1="1.563" x2="52.037" y2="81.403"/>
		<line fill="none" stroke="#FFFFFF" stroke-width="2.8346" stroke-miterlimit="10" x1="95.431" y1="4.059" x2="57.255" y2="83.9"/>
		
			<line fill="none" stroke="#FFFFFF" stroke-width="2.8346" stroke-miterlimit="10" x1="100.107" y1="6.293" x2="61.932" y2="86.134"/>
		
			<line fill="none" stroke="#FFFFFF" stroke-width="2.8346" stroke-miterlimit="10" x1="105.355" y1="8.804" x2="67.18" y2="88.644"/>
		
			<line fill="none" stroke="#FFFFFF" stroke-width="2.8346" stroke-miterlimit="10" x1="110.032" y1="11.04" x2="71.856" y2="90.879"/>
		
			<line fill="none" stroke="#FFFFFF" stroke-width="2.8346" stroke-miterlimit="10" x1="115.144" y1="13.484" x2="76.969" y2="93.325"/>
		
			<line fill="none" stroke="#FFFFFF" stroke-width="2.8346" stroke-miterlimit="10" x1="119.82" y1="15.72" x2="81.646" y2="95.56"/>
		
			<line fill="none" stroke="#FFFFFF" stroke-width="2.8346" stroke-miterlimit="10" x1="125.069" y1="18.23" x2="86.894" y2="98.071"/>
		
			<line fill="none" stroke="#FFFFFF" stroke-width="2.8346" stroke-miterlimit="10" x1="129.745" y1="20.465" x2="91.569" y2="100.305"/>
	</g>
	
		<polygon clip-path="url(#SVGID_4_)" fill="#F6F6F6" fill-opacity="0.75" stroke="#3E3D40" stroke-width="1.4173" stroke-linejoin="round" stroke-miterlimit="10" points="
		82.817,-11.816 92.99,8.8 115.75,12.105 99.282,28.159 103.167,50.82 82.817,40.121 62.464,50.82 66.353,28.159 49.886,12.105 
		72.644,8.8 	"/>
</g>
<g id="Ebene_3">
	<defs>
		<rect id="SVGID_5_" x="48.351" y="-43.066" width="77.303" height="48.568"/>
	</defs>
	<clipPath id="SVGID_6_">
		<use xlink:href="#SVGID_5_"  overflow="visible"/>
	</clipPath>
	<g clip-path="url(#SVGID_6_)">
		
			<line fill="none" stroke="#FFFFFF" stroke-width="2.8346" stroke-miterlimit="10" x1="68.432" y1="-74.653" x2="30.256" y2="5.187"/>
		
			<line fill="none" stroke="#FFFFFF" stroke-width="2.8346" stroke-miterlimit="10" x1="73.109" y1="-72.418" x2="34.933" y2="7.422"/>
		
			<line fill="none" stroke="#FFFFFF" stroke-width="2.8346" stroke-miterlimit="10" x1="78.356" y1="-69.908" x2="40.181" y2="9.933"/>
		
			<line fill="none" stroke="#FFFFFF" stroke-width="2.8346" stroke-miterlimit="10" x1="83.032" y1="-67.673" x2="44.857" y2="12.167"/>
		
			<line fill="none" stroke="#FFFFFF" stroke-width="2.8346" stroke-miterlimit="10" x1="88.146" y1="-65.228" x2="49.97" y2="14.613"/>
		
			<line fill="none" stroke="#FFFFFF" stroke-width="2.8346" stroke-miterlimit="10" x1="92.821" y1="-62.992" x2="54.646" y2="16.847"/>
		
			<line fill="none" stroke="#FFFFFF" stroke-width="2.8346" stroke-miterlimit="10" x1="98.07" y1="-60.482" x2="59.895" y2="19.358"/>
		
			<line fill="none" stroke="#FFFFFF" stroke-width="2.8346" stroke-miterlimit="10" x1="102.746" y1="-58.247" x2="64.57" y2="21.593"/>
		
			<line fill="none" stroke="#FFFFFF" stroke-width="2.8346" stroke-miterlimit="10" x1="107.964" y1="-55.751" x2="69.788" y2="24.09"/>
		
			<line fill="none" stroke="#FFFFFF" stroke-width="2.8346" stroke-miterlimit="10" x1="112.641" y1="-53.516" x2="74.465" y2="26.325"/>
		
			<line fill="none" stroke="#FFFFFF" stroke-width="2.8346" stroke-miterlimit="10" x1="117.889" y1="-51.006" x2="79.713" y2="28.834"/>
		
			<line fill="none" stroke="#FFFFFF" stroke-width="2.8346" stroke-miterlimit="10" x1="122.565" y1="-48.77" x2="84.39" y2="31.07"/>
		
			<line fill="none" stroke="#FFFFFF" stroke-width="2.8346" stroke-miterlimit="10" x1="127.677" y1="-46.326" x2="89.502" y2="33.515"/>
		
			<line fill="none" stroke="#FFFFFF" stroke-width="2.8346" stroke-miterlimit="10" x1="132.354" y1="-44.09" x2="94.179" y2="35.75"/>
		
			<line fill="none" stroke="#FFFFFF" stroke-width="2.8346" stroke-miterlimit="10" x1="137.603" y1="-41.58" x2="99.427" y2="38.261"/>
		
			<line fill="none" stroke="#FFFFFF" stroke-width="2.8346" stroke-miterlimit="10" x1="142.278" y1="-39.345" x2="104.103" y2="40.496"/>
	</g>
	
		<polygon clip-path="url(#SVGID_6_)" fill="#F6F6F6" fill-opacity="0.75" stroke="#3E3D40" stroke-width="1.4173" stroke-linejoin="round" stroke-miterlimit="10" points="
		85.817,-26.816 95.99,-6.2 118.75,-2.895 102.282,13.159 106.167,35.82 85.817,25.121 65.464,35.82 69.353,13.159 52.886,-2.895 
		75.644,-6.2 	"/>
</g>
</svg>
