<?xml version="1.0" encoding="utf-8"?>
<!-- Generator: Adobe Illustrator 15.0.2, SVG Export Plug-In . SVG Version: 6.00 Build 0)  -->
<!DOCTYPE svg PUBLIC "-//W3C//DTD SVG 1.1//EN" "http://www.w3.org/Graphics/SVG/1.1/DTD/svg11.dtd">
<svg version="1.1" id="Ebene_1" xmlns="http://www.w3.org/2000/svg" xmlns:xlink="http://www.w3.org/1999/xlink" x="0px" y="0px"
	 width="156.667px" height="131.667px" viewBox="0 0 156.667 131.667" enable-background="new 0 0 156.667 131.667"
	 xml:space="preserve">
<g id="Ebene_1_1_">
	<rect x="16.75" y="13.75" fill="#FFFFFF" width="97.25" height="56"/>
	<g>
		<g>
			<path fill="#3E3D40" d="M39.039,83.856l-8.134,11.569h67.523l-8.163-11.569H39.039z M11.896,9.593v64.954H118.65V9.593H11.896z
				 M111.685,67.507h-92.82V16.562h92.819L111.685,67.507L111.685,67.507z"/>
		</g>
	</g>
</g>
<g id="Ebene_2">
	<g id="Ebene_2_1_">
		<g>
			<rect x="111.712" y="60.206" fill="#FFFFFF" width="30.83" height="49.172"/>
			<circle fill="#FFFFFF" cx="127.171" cy="117.921" r="1.963"/>
			<path fill="#3F3E41" d="M145.664,61.063c0,0-0.235-4.704-1.488-6.157c-1.273-1.469-2.891-1.813-4.069-2.062
				c-1.383-0.293-3.925-0.693-8.179-0.938c-1.942-0.111-3.465-0.162-4.942-0.162c-1.303,0-2.483,0.037-3.981,0.084l-0.723,0.024
				c-2.873,0.087-5.16,0.31-6.135,0.405c-0.212,0.021-0.355,0.034-0.432,0.04c-0.102,0.007-0.403,0.027-0.521,0.25
				c-0.006,0.015-0.017,0.029-0.021,0.044c-0.444,0.075-1.588,0.282-2.488,0.563c-1.505,0.469-2.329,1.072-3.051,2.229
				c-0.657,1.058-0.787,2.837-0.834,3.506c-0.01,0.069-0.012,0.168-0.012,0.168l-0.172,51.088l0.245,4.612
				c0,0,0.94,4.896,1.886,5.961c0.854,0.967,1.984,1.543,3.655,1.865c0.181,0.033,0.351,0.066,0.515,0.101
				c1.26,0.252,2.256,0.448,5.725,0.633c0.35,0.019,0.688,0.032,1.023,0.056c1.573,0.086,3.063,0.166,5.058,0.166
				c1.415,0,2.978-0.039,4.78-0.123c6.31-0.304,9.438-0.664,11.293-2.013c1.83-1.327,2.248-3.284,2.524-4.581l0.013-0.055
				c0.321-1.512,0.449-5.979,0.449-5.979L145.664,61.063z M127.171,119.888c-1.086,0-1.965-0.879-1.965-1.967
				c0-1.084,0.879-1.963,1.965-1.963s1.967,0.879,1.967,1.963C129.138,119.009,128.257,119.888,127.171,119.888z M142.542,109.378
				h-30.83V60.206h30.83V109.378z"/>
		</g>
	</g>
</g>
<path fill="#3E3D40" d="M81.402,49.955l-5.757-20.403c2.495,0.006,3.922,0.158,3.952,0.162l0.513-4.496
	c-0.327-0.037-8.133-0.886-19.716,1.234c-8.024,1.469-10.375,0.957-10.471,0.934c0.078,0.019,0.112,0.034,0.112,0.034l-1.444,4.288
	c0.322,0.108,1.146,0.304,2.887,0.304c0.579,0,1.259-0.021,2.055-0.075l2.594,18.716c-0.563-0.216-1.174-0.335-1.813-0.335
	c-2.802,0-5.081,2.279-5.081,5.081s2.279,5.081,5.081,5.081s5.082-2.279,5.082-5.081c0-0.317,0.011-0.578-0.021-0.927
	c0.006-0.184-0.022-0.318-0.045-0.483l-3.092-22.314c1.405-0.172,3.049-0.42,4.971-0.772c4.584-0.839,8.56-1.183,11.629-1.301
	L77.859,47.4c-0.252-0.041-0.509-0.062-0.773-0.062c-2.684,0-4.868,2.184-4.868,4.868s2.184,4.868,4.868,4.868
	c2.685,0,4.868-2.184,4.868-4.868C81.955,51.394,81.675,51.017,81.402,49.955z"/>
<g>
	<g>
		<path fill="#3E3D40" d="M116.359,95.944c-0.233,0.278-0.374,0.636-0.374,1.026c0,0.882,0.715,1.597,1.596,1.597
			c0.571,0,1.071-0.301,1.354-0.751L116.359,95.944z"/>
	</g>
	<g>
		<path fill="#3E3D40" d="M132.521,75.894c2.105,1.496,3.864,1.884,4.634,1.983c0.067-1.837-0.719-3.68-2.283-4.887
			c-1.04-0.803-2.282-1.228-3.593-1.228v-0.222l0,0v0.222c-0.736,0-1.45,0.136-2.113,0.389
			C129.495,72.847,130.41,74.396,132.521,75.894z"/>
		<path fill="#3E3D40" d="M132.092,76.498c-2.258-1.604-3.235-3.253-3.602-4.037c-0.72,0.387-1.361,0.924-1.879,1.594
			c-0.96,1.245-1.38,2.79-1.179,4.351c0.201,1.56,0.998,2.948,2.242,3.909c1.041,0.804,2.283,1.228,3.595,1.228
			c1.842,0,3.542-0.835,4.665-2.29c0.616-0.798,0.995-1.705,1.147-2.635C136.226,78.511,134.349,78.1,132.092,76.498z"/>
	</g>
	<path fill="#3E3D40" d="M127.3,82.77c-0.663-0.513-1.194-1.132-1.593-1.813l-9.522,13.508c-0.21,0.29-0.146,0.697,0.144,0.908
		l3.34,2.429c0.116,0.083,0.25,0.124,0.383,0.124c0.2,0,0.399-0.094,0.526-0.268l9.618-13.645
		C129.173,83.856,128.176,83.447,127.3,82.77z M121.315,93.029l-1.434,2.065c-0.205,0.295-0.609,0.368-0.905,0.164l-0.242-0.169
		c-0.295-0.205-0.368-0.61-0.164-0.905l1.435-2.065c0.204-0.295,0.446,0.119,0.72,0.406
		C121.079,92.681,121.52,92.734,121.315,93.029z"/>
</g>
</svg>
